<svg width="250" height="250" viewBox="0 0 250 250" fill="none" xmlns="http://www.w3.org/2000/svg">
<circle cx="125" cy="125" r="125" fill="url(#paint0_linear_30_14)"/>
<path d="M124.5 61.875H75.7917C72.1007 61.875 68.561 63.3412 65.9511 65.9511C63.3412 68.561 61.875 72.1007 61.875 75.7917V173.208C61.875 176.899 63.3412 180.439 65.9511 183.049C68.561 185.659 72.1007 187.125 75.7917 187.125H173.208C176.899 187.125 180.439 185.659 183.049 183.049C185.659 180.439 187.125 176.899 187.125 173.208V124.5" stroke="#F0F7FE" stroke-width="13.9167" stroke-linecap="round" stroke-linejoin="round"/>
<path d="M168.859 59.2655C171.628 56.4973 175.382 54.9421 179.297 54.9421C183.212 54.9421 186.966 56.4973 189.734 59.2655C192.503 62.0337 194.058 65.7882 194.058 69.703C194.058 73.6178 192.503 77.3723 189.734 80.1405L127.019 142.863C125.367 144.514 123.325 145.722 121.083 146.377L101.092 152.222C100.493 152.397 99.8587 152.407 99.2546 152.252C98.6504 152.097 98.0989 151.783 97.6579 151.342C97.2169 150.901 96.9025 150.35 96.7477 149.745C96.5929 149.141 96.6034 148.506 96.778 147.908L102.623 127.916C103.281 125.676 104.492 123.637 106.144 121.988L168.859 59.2655Z" stroke="#F0F7FE" stroke-width="13.9167" stroke-linecap="round" stroke-linejoin="round"/>
<defs>
<linearGradient id="paint0_linear_30_14" x1="125" y1="0" x2="125" y2="250" gradientUnits="userSpaceOnUse">
<stop stop-color="#6DAFED"/>
<stop offset="1" stop-color="#4B90E6"/>
</linearGradient>
</defs>
</svg>
